<svg width="160" height="23" viewBox="0 0 160 23" fill="none" xmlns="http://www.w3.org/2000/svg">
<path d="M34.6719 5.29588H40.4921V20.8652H44.5862V5.29588H50.4376V1.65979H34.6719V5.29588Z" fill="black"/>
<path d="M52.4258 20.8652H67.7615V17.2047H56.4887V13.0988H65.3312V9.43833H56.4887V5.29588H67.7615V1.65979H52.4258V20.8652Z" fill="black"/>
<path d="M79.7953 6.95529L74.567 1.65979H70.8281V20.8652H74.8911V7.80331L77.7451 10.628C77.7948 10.8275 77.8158 11.0329 77.8074 11.2381V13.0683H81.8704V11.2381C81.8633 11.0329 81.8843 10.8277 81.9327 10.628L84.7867 7.7911V20.8713H88.8372V1.65979H85.0983L79.7953 6.95529Z" fill="black"/>
<path d="M103.855 2.86742C103.674 2.52152 103.421 2.21616 103.113 1.9706C102.743 1.73909 102.306 1.63005 101.867 1.65947H98.0721C97.643 1.61224 97.2102 1.70663 96.8421 1.92768C96.4741 2.14872 96.192 2.48376 96.0406 2.87963L92.1272 10.1396C91.9072 10.7242 91.8221 11.3492 91.878 11.9698V20.877H95.9409V15.0324H104.042V20.877H108.043V11.9698C108.105 11.3506 108.026 10.7254 107.812 10.1396L103.855 2.86742ZM103.992 11.3659H95.8911L99.1751 5.26504H100.764L103.992 11.3659Z" fill="black"/>
<path d="M124.948 2.92224C123.983 2.08312 122.73 1.63204 121.44 1.65938H111.102V20.8647H121.44C122.733 20.8962 123.989 20.4396 124.948 19.5897C125.416 19.2046 125.791 18.7235 126.047 18.1805C126.303 17.6375 126.435 17.0459 126.431 16.4477V13.8549C126.452 12.9039 126.127 11.9765 125.515 11.2377C126.123 10.5154 126.447 9.60475 126.431 8.66921V6.02146C126.433 5.42972 126.301 4.84493 126.044 4.30908C125.788 3.77324 125.414 3.29962 124.948 2.92224ZM115.165 9.43792V5.29546H121.44C121.668 5.27982 121.894 5.35095 122.07 5.4941C122.247 5.63724 122.36 5.8414 122.387 6.06417V8.69362C122.354 8.91195 122.239 9.11011 122.063 9.24822C121.887 9.38632 121.664 9.45411 121.44 9.43792H115.165ZM122.374 16.4477C122.375 16.5456 122.351 16.6421 122.306 16.7292C122.26 16.8162 122.194 16.8913 122.113 16.948C121.925 17.1141 121.68 17.2054 121.427 17.2043H115.165V13.0984H121.44C121.667 13.081 121.892 13.1499 122.068 13.2908C122.245 13.4317 122.359 13.6337 122.387 13.8549L122.374 16.4477Z" fill="black"/>
<path d="M128.344 5.29588H133.709V17.2047H128.344V20.8652H143.106V17.2047H137.76V5.29588H143.106V1.65979H128.344V5.29588Z" fill="black"/>
<path d="M144.809 1.65979V5.29588H150.342V20.8652H154.436V5.29588H160.001V1.65979H144.809Z" fill="black"/>
<path d="M5.68314 5.41142L7.47159 3.66049L3.73268 0L1.05313 2.62945C0.719435 2.9552 0.454653 3.34219 0.273942 3.76827C0.0932311 4.19435 0.000140943 4.65113 0 5.11248V17.851C0.000140943 18.3123 0.0932311 18.7691 0.273942 19.1952C0.454653 19.6213 0.719435 20.0083 1.05313 20.334L3.73268 22.9635L7.47159 19.303L5.68314 17.6131C5.52103 17.4526 5.3934 17.2619 5.30777 17.0524C5.22215 16.8428 5.18028 16.6186 5.18462 16.3929V6.63158C5.18028 6.40592 5.22215 6.18168 5.30777 5.97212C5.3934 5.76255 5.52103 5.5719 5.68314 5.41142V5.41142Z" fill="#FB1E1E"/>
<path d="M26.5775 2.65985L23.9166 0.0303955L20.1777 3.69088L21.9413 5.41132C22.1054 5.57066 22.2347 5.76097 22.3215 5.9707C22.4082 6.18044 22.4506 6.40524 22.446 6.63148V16.3928C22.4506 16.619 22.4082 16.8438 22.3215 17.0536C22.2347 17.2633 22.1054 17.4536 21.9413 17.613L20.1777 19.3395L23.9166 23L26.6024 20.3705C26.9371 20.0442 27.2025 19.6563 27.3833 19.2291C27.564 18.8019 27.6566 18.3438 27.6556 17.8814V5.14288C27.6525 4.67977 27.5556 4.22185 27.3706 3.79564C27.1855 3.36943 26.916 2.98338 26.5775 2.65985V2.65985Z" fill="#FB1E1E"/>
<path d="M16.401 3.69092H11.2227V19.4005H16.401V3.69092Z" fill="#FB1E1E"/>
</svg>
