<svg width="218" height="48" viewBox="0 0 218 48" fill="none" xmlns="http://www.w3.org/2000/svg">
<path d="M79.7386 18.0288L71.745 33.4623H67.5483L59.5547 18.0288H63.4944L68.2906 27.6531C68.9472 28.9537 69.3755 29.9941 69.6324 30.7456C69.7466 30.3699 69.9179 29.9363 70.1177 29.4161C70.3461 28.8959 70.603 28.3178 70.9456 27.6531L75.7418 18.0288H79.7386Z" fill="white"/>
<path d="M84.4493 18H81.0234V33.4624H84.4493V18Z" fill="white"/>
<path d="M103.777 28.7515C103.777 29.5318 103.635 30.1965 103.321 30.7746C103.035 31.3526 102.607 31.8439 102.093 32.2486C101.579 32.6532 100.951 32.9422 100.266 33.1445C99.5522 33.3468 98.8099 33.4624 97.982 33.4624H87.476V29.9942H98.6101C99.0383 29.9942 99.4094 29.8786 99.6949 29.6763C100.009 29.474 100.152 29.1561 100.152 28.7515C100.152 28.3468 100.009 28.0289 99.6949 27.7977C99.3809 27.5665 99.0383 27.4509 98.6101 27.4509H92.5577C91.7584 27.4509 91.0446 27.3353 90.3595 27.133C89.6743 26.9306 89.0748 26.6127 88.5609 26.2081C88.047 25.8035 87.6473 25.3121 87.3618 24.7341C87.0763 24.1561 86.9336 23.4624 86.9336 22.711C86.9336 21.9595 87.0763 21.2948 87.3618 20.6879C87.6473 20.1098 88.047 19.6185 88.5609 19.2139C89.0748 18.8092 89.6743 18.5202 90.3595 18.3179C91.0446 18.1156 91.7869 18 92.5577 18H103.035V21.4682H92.0153C91.5585 21.4682 91.1588 21.5838 90.8733 21.815C90.5593 22.0462 90.4166 22.3642 90.4166 22.711C90.4166 23.0867 90.5593 23.3757 90.8733 23.6069C91.1588 23.8382 91.5585 23.9538 92.0438 23.9538H98.0105C98.867 23.9538 99.6378 24.0694 100.323 24.3006C101.037 24.5318 101.636 24.8786 102.15 25.2832C102.664 25.7168 103.064 26.2081 103.349 26.7861C103.635 27.3642 103.777 28.0578 103.777 28.7515Z" fill="white"/>
<path d="M125.447 33.4623H121.507L119.823 29.9941H110.973L109.289 33.4623H105.32L113.314 18.0288H117.511L125.447 33.4623ZM117.967 26.5259C117.225 25.1675 116.654 24.0404 116.226 23.0577C115.798 22.104 115.512 21.3236 115.341 20.7456C115.027 21.8438 114.17 23.7803 112.743 26.497H117.967V26.5259Z" fill="white"/>
<path d="M144.346 24.1849C144.346 24.8207 144.232 25.3988 143.975 25.9479C143.747 26.497 143.404 26.9884 143.004 27.4219C142.576 27.8554 142.119 28.1733 141.548 28.4334C141.006 28.6936 140.407 28.8092 139.778 28.8092H139.265L143.889 33.4623H139.036L134.668 28.8092H130.129V33.4623H126.703V18.0288H139.778C140.407 18.0288 141.006 18.1444 141.548 18.4045C142.091 18.6646 142.576 18.9826 143.004 19.4161C143.433 19.8496 143.747 20.3409 143.975 20.8901C144.203 21.4681 144.346 22.0462 144.346 22.682V24.1849ZM140.92 22.682C140.92 22.3641 140.806 22.0751 140.578 21.8438C140.349 21.6126 140.092 21.497 139.778 21.497H130.129V25.341H139.778C140.092 25.341 140.349 25.2253 140.578 24.9941C140.806 24.7629 140.92 24.5028 140.92 24.1849V22.682Z" fill="white"/>
<path d="M160.932 21.4682H155.308V33.4913H151.882V21.4682H146.344V18H160.932V21.4682Z" fill="white"/>
<path d="M178.573 33.4913H163.414V18H178.573V21.4682H166.84V23.9538H178.202V27.422H166.84V30.0231H178.573V33.4913Z" fill="white"/>
<path d="M199.272 31.3525C199.015 31.6415 198.729 31.9016 198.387 32.1618C198.044 32.4219 197.702 32.6531 197.359 32.8265C197.016 33.0288 196.645 33.1733 196.303 33.2889C195.96 33.4045 195.617 33.4623 195.303 33.4623H185.74C185.112 33.4623 184.541 33.3467 183.97 33.0866C183.399 32.8554 182.913 32.5086 182.514 32.104C182.085 31.6704 181.771 31.1791 181.543 30.63C181.315 30.0808 181.172 29.4739 181.172 28.8092V22.682C181.172 22.0462 181.286 21.4392 181.543 20.8612C181.8 20.2831 182.114 19.7918 182.542 19.3872C182.97 18.9826 183.427 18.6357 183.998 18.4045C184.541 18.1733 185.14 18.0288 185.74 18.0288H195.303C196.103 18.0288 196.845 18.2311 197.53 18.6068C198.215 18.9826 198.729 19.4739 199.043 20.0519L196.16 22.1618C196.074 21.7282 195.76 21.497 195.303 21.497H185.74C185.426 21.497 185.169 21.6126 184.94 21.8438C184.712 22.0751 184.598 22.3641 184.598 22.682V28.8381C184.598 29.156 184.712 29.445 184.94 29.6762C185.169 29.9074 185.426 30.023 185.74 30.023H195.303C195.703 30.023 196.188 29.7051 196.731 29.0693L199.272 31.3525Z" fill="white"/>
<path d="M217.001 33.4913H213.576V27.422H204.84V33.4913H201.414V18H204.84V23.9538H213.576V18H217.001V33.4913Z" fill="white"/>
<path d="M24.0617 12.665C17.7564 12.665 12.6289 17.7953 12.6289 24.1041C12.6289 30.413 17.7564 35.5432 24.0617 35.5432C30.3671 35.5432 35.4946 30.413 35.4946 24.1041C35.4946 17.7953 30.4364 12.665 24.0617 12.665ZM30.1593 20.0138C29.5356 20.0138 28.7735 18.5579 27.6648 17.8646C26.4869 17.102 25.1704 16.9634 25.1704 16.2701C25.1704 15.5768 26.5562 15.0222 27.8727 15.0222C29.2585 15.0222 30.7136 16.4781 31.1293 17.726C31.6143 18.9739 31.06 20.0138 30.1593 20.0138Z" fill="#F05722"/>
<path d="M24.0574 40.6041C14.9804 40.6041 7.56641 33.186 7.56641 24.1041C7.56641 15.0221 14.9804 7.604 24.0574 7.604C33.1344 7.604 40.5484 15.0221 40.5484 24.1041C40.5484 33.186 33.2036 40.6041 24.0574 40.6041ZM24.0574 9.54519C16.0198 9.54519 9.50652 16.062 9.50652 24.1041C9.50652 32.1461 16.0198 38.6629 24.0574 38.6629C32.095 38.6629 38.6083 32.1461 38.6083 24.1041C38.6775 16.062 32.095 9.54519 24.0574 9.54519Z" fill="white"/>
<path d="M20.5295 5.4548C22.5389 5.10816 24.5483 5.03883 26.5577 5.31614L27.9435 0.324533C25.1719 -0.160763 22.2617 -0.0914348 19.3516 0.463188L20.5295 5.4548Z" fill="#F05722"/>
<path d="M16.0238 6.91141C16.4396 6.70343 16.786 6.56477 17.2017 6.42612C17.7561 6.21813 18.2411 6.07948 18.7954 5.87149L17.6175 0.879883C16.8553 1.08787 16.0931 1.36518 15.3309 1.64249C14.7766 1.85047 14.2223 2.12779 13.668 2.33577L16.0238 6.91141Z" fill="#F05722"/>
<path d="M39.0977 35.2657L43.1165 38.5241C47.2739 33.0472 49.0754 25.7677 47.3432 18.4883L42.3543 19.6669C43.3936 24.1039 42.8393 28.8182 40.622 32.8392C40.2063 33.7405 39.652 34.5724 39.0977 35.2657Z" fill="#F05722"/>
<path d="M33.4194 7.74332L35.9831 3.30634C33.9737 2.12777 31.8257 1.29583 29.6085 0.741211L28.2227 5.66349C30.0242 6.07946 31.8257 6.77273 33.4194 7.74332Z" fill="#F05722"/>
<path d="M8.9512 12.6649C10.4756 10.6544 12.3464 8.99053 14.4944 7.74263L12.2078 3.16699C9.15907 4.90019 6.59534 7.25734 4.58594 10.0305L8.9512 12.6649Z" fill="#F05722"/>
<path d="M13.5973 39.772C9.57847 37.1375 6.73759 33.1165 5.62895 28.4022C5.21321 26.7383 5.07463 25.1438 5.14392 23.4799L0.0164636 22.9253C-0.0528263 25.0745 0.0857535 27.3623 0.640073 29.5808C2.16445 36.0283 6.18327 41.2972 11.4493 44.4863L13.5973 39.772Z" fill="#F05722"/>
<path d="M25.2409 42.8225C21.7071 43.0998 18.2426 42.3372 15.0553 40.604L12.9766 45.3183C16.7875 47.2595 21.0835 48.2301 25.518 47.9528L25.2409 42.8225Z" fill="#F05722"/>
<path d="M37.9859 36.6523C36.0457 38.8708 33.5513 40.604 30.7797 41.644C30.0175 41.9213 29.186 42.1986 28.3545 42.4066C27.8695 42.5452 27.4538 42.6145 26.9688 42.6839L27.2459 47.8141C28.0081 47.6755 28.7703 47.6061 29.5325 47.3982C30.5718 47.1209 31.6112 46.8435 32.6505 46.4276C36.3229 44.9717 39.5102 42.7532 42.0047 39.9108L37.9859 36.6523Z" fill="#F05722"/>
<path d="M3.62342 11.417C3.27697 11.9716 2.99982 12.4569 2.72266 13.0115L7.29579 15.3687C7.29579 15.2994 7.36508 15.23 7.36508 15.1607C7.57295 14.8141 7.78082 14.4674 7.98869 14.1208L3.62342 11.417Z" fill="#F05722"/>
<path d="M1.96169 14.606C1.06093 16.6858 0.437316 18.9043 0.160156 21.1921L5.28761 21.6774C5.49548 20.0135 5.91122 18.419 6.53483 16.8938L1.96169 14.606Z" fill="#F05722"/>
</svg>
